<?xml version="1.0" encoding="UTF-8"?>
<svg id="Camada_1" data-name="Camada 1" xmlns="http://www.w3.org/2000/svg" xmlns:xlink="http://www.w3.org/1999/xlink" viewBox="0 0 486.08 112">
  <defs>
    <style>
      .cls-1 {
        fill: url(#Gradiente_sem_nome_412-21);
      }

      .cls-1, .cls-2, .cls-3, .cls-4, .cls-5, .cls-6, .cls-7, .cls-8, .cls-9, .cls-10, .cls-11, .cls-12, .cls-13, .cls-14, .cls-15, .cls-16, .cls-17, .cls-18, .cls-19, .cls-20, .cls-21, .cls-22 {
        stroke-width: 0px;
      }

      .cls-2 {
        fill: url(#Gradiente_sem_nome_412-8);
      }

      .cls-3 {
        fill: url(#Gradiente_sem_nome_412-16);
      }

      .cls-4 {
        fill: url(#Gradiente_sem_nome_412-10);
      }

      .cls-5 {
        fill: url(#Gradiente_sem_nome_412-11);
      }

      .cls-6 {
        fill: url(#Gradiente_sem_nome_412-12);
      }

      .cls-7 {
        fill: url(#Gradiente_sem_nome_412-17);
      }

      .cls-8 {
        fill: url(#Gradiente_sem_nome_412-9);
      }

      .cls-9 {
        fill: url(#Gradiente_sem_nome_412-2);
      }

      .cls-10 {
        fill: url(#Gradiente_sem_nome_412-20);
      }

      .cls-11 {
        fill: url(#Gradiente_sem_nome_412-3);
      }

      .cls-12 {
        fill: url(#Gradiente_sem_nome_412-7);
      }

      .cls-13 {
        fill: url(#Gradiente_sem_nome_412-19);
      }

      .cls-14 {
        fill: url(#Gradiente_sem_nome_412-4);
      }

      .cls-15 {
        fill: url(#Gradiente_sem_nome_412-6);
      }

      .cls-16 {
        fill: url(#Gradiente_sem_nome_412-18);
      }

      .cls-17 {
        fill: url(#Gradiente_sem_nome_412-22);
      }

      .cls-18 {
        fill: url(#Gradiente_sem_nome_412);
      }

      .cls-19 {
        fill: url(#Gradiente_sem_nome_412-13);
      }

      .cls-20 {
        fill: url(#Gradiente_sem_nome_412-5);
      }

      .cls-21 {
        fill: url(#Gradiente_sem_nome_412-15);
      }

      .cls-22 {
        fill: url(#Gradiente_sem_nome_412-14);
      }
    </style>
    <linearGradient id="Gradiente_sem_nome_412" data-name="Gradiente sem nome 412" x1="102.07" y1="26.17" x2="138.16" y2="26.17" gradientUnits="userSpaceOnUse">
      <stop offset="0" stop-color="#ffffd6"/>
      <stop offset="1" stop-color="#fecb9b"/>
    </linearGradient>
    <linearGradient id="Gradiente_sem_nome_412-2" data-name="Gradiente sem nome 412" x1="141.15" y1="26.5" x2="186.81" y2="26.5" xlink:href="#Gradiente_sem_nome_412"/>
    <linearGradient id="Gradiente_sem_nome_412-3" data-name="Gradiente sem nome 412" x1="191.54" x2="233.54" xlink:href="#Gradiente_sem_nome_412"/>
    <linearGradient id="Gradiente_sem_nome_412-4" data-name="Gradiente sem nome 412" x1="237.06" x2="294.35" xlink:href="#Gradiente_sem_nome_412"/>
    <linearGradient id="Gradiente_sem_nome_412-5" data-name="Gradiente sem nome 412" x1="299.61" x2="318.95" xlink:href="#Gradiente_sem_nome_412"/>
    <linearGradient id="Gradiente_sem_nome_412-6" data-name="Gradiente sem nome 412" x1="325.13" x2="361.22" xlink:href="#Gradiente_sem_nome_412"/>
    <linearGradient id="Gradiente_sem_nome_412-7" data-name="Gradiente sem nome 412" x1="365.67" x2="412.53" xlink:href="#Gradiente_sem_nome_412"/>
    <linearGradient id="Gradiente_sem_nome_412-8" data-name="Gradiente sem nome 412" x1="91.93" y1="85.17" x2="141.71" y2="85.17" xlink:href="#Gradiente_sem_nome_412"/>
    <linearGradient id="Gradiente_sem_nome_412-9" data-name="Gradiente sem nome 412" x1="144.78" y1="85.17" x2="204.33" y2="85.17" xlink:href="#Gradiente_sem_nome_412"/>
    <linearGradient id="Gradiente_sem_nome_412-10" data-name="Gradiente sem nome 412" x1="207.66" y1="85.17" x2="257.44" y2="85.17" xlink:href="#Gradiente_sem_nome_412"/>
    <linearGradient id="Gradiente_sem_nome_412-11" data-name="Gradiente sem nome 412" x1="261.44" y1="85.17" x2="299.98" y2="85.17" xlink:href="#Gradiente_sem_nome_412"/>
    <linearGradient id="Gradiente_sem_nome_412-12" data-name="Gradiente sem nome 412" x1="303.77" y1="85.13" x2="348.76" y2="85.13" xlink:href="#Gradiente_sem_nome_412"/>
    <linearGradient id="Gradiente_sem_nome_412-13" data-name="Gradiente sem nome 412" x1="351.49" y1="85.17" x2="400.87" y2="85.17" xlink:href="#Gradiente_sem_nome_412"/>
    <linearGradient id="Gradiente_sem_nome_412-14" data-name="Gradiente sem nome 412" x1="399.47" y1="85.17" x2="449.25" y2="85.17" xlink:href="#Gradiente_sem_nome_412"/>
    <linearGradient id="Gradiente_sem_nome_412-15" data-name="Gradiente sem nome 412" x1="452.45" y1="85.17" x2="486.08" y2="85.17" xlink:href="#Gradiente_sem_nome_412"/>
    <linearGradient id="Gradiente_sem_nome_412-16" data-name="Gradiente sem nome 412" x1="0" y1="11.03" x2="23.33" y2="11.03" xlink:href="#Gradiente_sem_nome_412"/>
    <linearGradient id="Gradiente_sem_nome_412-17" data-name="Gradiente sem nome 412" x1="0" y1="93.57" x2="23.33" y2="93.57" xlink:href="#Gradiente_sem_nome_412"/>
    <linearGradient id="Gradiente_sem_nome_412-18" data-name="Gradiente sem nome 412" x1="1.27" y1="52.49" x2="4.78" y2="52.49" xlink:href="#Gradiente_sem_nome_412"/>
    <linearGradient id="Gradiente_sem_nome_412-19" data-name="Gradiente sem nome 412" x1="9.27" y1="52.49" x2="13.16" y2="52.49" xlink:href="#Gradiente_sem_nome_412"/>
    <linearGradient id="Gradiente_sem_nome_412-20" data-name="Gradiente sem nome 412" x1="17.94" y1="52.49" x2="21.64" y2="52.49" xlink:href="#Gradiente_sem_nome_412"/>
    <linearGradient id="Gradiente_sem_nome_412-21" data-name="Gradiente sem nome 412" x1="0" y1="3.5" x2="23" y2="3.5" xlink:href="#Gradiente_sem_nome_412"/>
    <linearGradient id="Gradiente_sem_nome_412-22" data-name="Gradiente sem nome 412" x1="0" y1="105" x2="62" y2="105" xlink:href="#Gradiente_sem_nome_412"/>
  </defs>
  <g>
    <path class="cls-18" d="m102.07,49.89v-2.79h.86c1.02,0,1.94-.11,2.76-.33.82-.22,1.47-.68,1.96-1.36.49-.69.73-1.72.73-3.09,0-5.31,0-10.61,0-15.92s0-10.92,0-16.38c.04-.79-.08-1.43-.18-1.84-.12-.52-.3-.95-.55-1.28-.49-.67-1.14-1.11-1.96-1.33-.82-.22-1.74-.33-2.76-.33h-.86v-2.79h19.34v2.79h-.86c-.98,0-1.87.1-2.69.3-.82.2-1.48.62-1.99,1.26-.51.64-.76,1.63-.76,2.96v36.82h13.09c1.33,0,2.4-.3,3.22-.9.82-.6,1.43-1.36,1.83-2.29.4-.93.66-1.86.8-2.79l.67-4.98h3.46l-.47,14.29h-35.62Z"/>
    <path class="cls-9" d="m164.21,50.56c-3.5,0-6.5-.5-9-1.5-2.5-1-4.42-2.6-5.75-4.82-1.33-2.21-1.99-5.12-1.99-8.71V9.75c0-1.33-.26-2.31-.76-2.96-.51-.64-1.17-1.06-1.99-1.26-.82-.2-1.72-.3-2.69-.3h-.86v-2.79h19.34v2.79h-.86c-.97,0-1.88.11-2.72.33-.84.22-1.51.66-1.99,1.33-.49.66-.73,1.71-.73,3.12v25.92c0,3.85,1.04,6.59,3.12,8.21,2.08,1.62,4.74,2.43,7.98,2.43,2.57,0,4.67-.44,6.31-1.33,1.64-.89,2.86-2.12,3.66-3.69.8-1.57,1.2-3.36,1.2-5.35V9.75c0-1.33-.26-2.31-.76-2.96-.51-.64-1.17-1.06-1.99-1.26-.82-.2-1.72-.3-2.69-.3h-.86v-2.79h16.68v2.79h-.86c-.97,0-1.88.11-2.72.33s-1.51.66-1.99,1.33c-.49.66-.73,1.71-.73,3.12v26.32c0,2.92-.62,5.45-1.86,7.58-1.24,2.13-3.07,3.77-5.48,4.92-2.42,1.15-5.39,1.73-8.94,1.73Z"/>
    <path class="cls-11" d="m191.54,49.89v-2.79h.86c1.02,0,1.94-.11,2.76-.33.82-.22,1.47-.68,1.96-1.36.49-.69.73-1.72.73-3.09V9.75c0-1.33-.25-2.31-.76-2.96-.51-.64-1.17-1.06-1.99-1.26-.82-.2-1.72-.3-2.69-.3h-.86v-2.79h20.34c4.56,0,8.46.92,11.7,2.76,3.23,1.84,5.7,4.52,7.41,8.04,1.71,3.52,2.56,7.81,2.56,12.86s-.81,9.03-2.43,12.59c-1.62,3.57-4.02,6.33-7.21,8.27-3.19,1.95-7.2,2.92-12.03,2.92h-20.34Zm18.81-3.39c3.54,0,6.48-.79,8.81-2.36,2.33-1.57,4.08-3.88,5.25-6.91,1.17-3.03,1.76-6.75,1.76-11.13s-.59-8.08-1.76-11.1c-1.17-3.01-2.92-5.3-5.25-6.88-2.33-1.57-5.24-2.36-8.74-2.36h-5.85v40.74h5.78Z"/>
    <path class="cls-14" d="m237.06,49.89v-2.79h.86c.97,0,1.87-.1,2.69-.3.82-.2,1.48-.62,1.99-1.26.51-.64.76-1.61.76-2.89V9.75c0-1.33-.26-2.31-.76-2.96-.51-.64-1.17-1.06-1.99-1.26-.82-.2-1.72-.3-2.69-.3h-.86v-2.79h15.15l13.76,38.01,13.62-38.01h14.75v2.79h-.86c-.97,0-1.88.11-2.72.33-.84.22-1.51.66-1.99,1.33-.49.66-.73,1.71-.73,3.12v32.3c0,1.37.24,2.4.73,3.09.49.69,1.15,1.14,1.99,1.36.84.22,1.75.33,2.72.33h.86v2.79h-17.68v-2.79h.2c.97,0,1.8-.1,2.49-.3.69-.2,1.23-.6,1.63-1.2.4-.6.62-1.5.67-2.69V7.43l-15.22,42.47h-3.59l-15.42-42.33v34.76c0,1.37.19,2.4.57,3.09.38.69.93,1.14,1.66,1.36.73.22,1.58.33,2.56.33h.2v2.79h-15.35Z"/>
    <path class="cls-20" d="m299.61,49.89v-2.79h.86c1.02,0,1.94-.11,2.76-.33.82-.22,1.47-.68,1.96-1.36.49-.69.73-1.72.73-3.09V10.02c0-1.42-.24-2.46-.73-3.12-.49-.67-1.14-1.11-1.96-1.33-.82-.22-1.74-.33-2.76-.33h-.86v-2.79h19.34v2.79h-.86c-.98,0-1.88.11-2.72.33-.84.22-1.51.66-1.99,1.33-.49.66-.73,1.71-.73,3.12v32.3c0,1.37.24,2.4.73,3.09.49.69,1.15,1.14,1.99,1.36.84.22,1.75.33,2.72.33h.86v2.79h-19.34Z"/>
    <path class="cls-15" d="m325.13,49.89v-2.79h.86c1.02,0,1.94-.11,2.76-.33.82-.22,1.47-.68,1.96-1.36.49-.69.73-1.72.73-3.09V10.02c0-1.42-.24-2.46-.73-3.12-.49-.67-1.14-1.11-1.96-1.33-.82-.22-1.74-.33-2.76-.33h-.86v-2.79h19.34v2.79h-.86c-.98,0-1.87.1-2.69.3-.82.2-1.49.62-1.99,1.26-.51.64-.76,1.63-.76,2.96v36.82h13.09c1.33,0,2.4-.3,3.22-.9.82-.6,1.43-1.36,1.83-2.29s.66-1.86.8-2.79l.66-4.98h3.46l-.46,14.29h-35.62Z"/>
    <path class="cls-12" d="m365.67,49.89v-2.79h1.26c.89,0,1.59-.13,2.13-.4.53-.27,1.02-.77,1.46-1.53.44-.75.93-1.84,1.46-3.26l14.75-39.48h5.18l15.02,41.14c.35.93.73,1.65,1.13,2.16.4.51.89.86,1.46,1.06.58.2,1.28.3,2.13.3h.86v2.79h-18.28v-2.79h1.53c1.33,0,2.33-.25,2.99-.76.67-.51,1-1.32,1-2.43,0-.27-.02-.52-.07-.76s-.1-.51-.17-.8c-.07-.29-.17-.59-.3-.9l-2.66-7.44h-17.48l-2.53,6.98c-.13.36-.24.71-.33,1.06s-.16.68-.2.96c-.04.29-.07.57-.07.83,0,1.11.37,1.93,1.1,2.46.73.53,1.83.8,3.29.8h1.53v2.79h-16.22Zm14.69-19.21h15.02l-4.12-11.63c-.44-1.33-.88-2.59-1.3-3.79s-.8-2.35-1.13-3.46c-.33-1.11-.63-2.19-.9-3.26-.22,1.06-.48,2.09-.76,3.09-.29,1-.61,2.04-.96,3.12-.35,1.09-.8,2.32-1.33,3.69l-4.52,12.23Z"/>
    <path class="cls-2" d="m91.93,108.89v-3.52h.8c.8,0,1.51-.13,2.13-.4.62-.27,1.18-.74,1.69-1.43.51-.69,1.01-1.7,1.5-3.02l14.42-39.08h9.1l13.89,39.14c.44,1.24.92,2.21,1.43,2.89.51.69,1.06,1.17,1.66,1.46.6.29,1.25.43,1.96.43h1.2v3.52h-21.93v-3.52h2.59c.66,0,1.31-.2,1.93-.6.62-.4.93-1.06.93-1.99,0-.35-.03-.71-.1-1.06-.07-.35-.14-.69-.23-1-.09-.31-.18-.58-.27-.8l-2.33-6.65h-16.15l-1.93,5.71c-.09.36-.2.75-.33,1.2-.13.44-.24.9-.33,1.36-.09.46-.13.88-.13,1.23,0,.84.31,1.49.93,1.93.62.44,1.31.66,2.06.66h2.79v3.52h-17.28Zm15.62-19.67h13.42l-3.52-10.9c-.31-1.02-.64-2.12-1-3.29-.36-1.17-.69-2.36-1-3.56-.31-1.2-.6-2.3-.86-3.32-.27.93-.58,1.97-.93,3.12-.36,1.15-.72,2.3-1.1,3.46-.38,1.15-.74,2.24-1.1,3.26l-3.92,11.23Z"/>
    <path class="cls-8" d="m144.78,108.89v-3.52h2.79c.62,0,1.18-.09,1.69-.27.51-.18.92-.55,1.23-1.13.31-.58.47-1.44.47-2.59v-32.37c0-1.2-.16-2.08-.47-2.66-.31-.58-.72-.95-1.23-1.13-.51-.18-1.07-.27-1.69-.27h-2.79v-3.52h19.14l11.03,32.1,10.57-32.1h18.81v3.52h-2.79c-.62,0-1.2.1-1.73.3-.53.2-.94.6-1.23,1.2-.29.6-.43,1.54-.43,2.82v31.77c0,1.24.14,2.17.43,2.79.29.62.7,1.03,1.23,1.23.53.2,1.11.3,1.73.3h2.79v3.52h-21.27v-3.52h.67c.93,0,1.71-.09,2.33-.27.62-.18,1.08-.53,1.4-1.06.31-.53.46-1.33.46-2.39v-33.63l-13.42,40.87h-4.52l-14.02-40.87v33.03c0,1.24.19,2.17.56,2.79.38.62.94,1.03,1.69,1.23s1.64.3,2.66.3h.4v3.52h-16.48Z"/>
    <path class="cls-4" d="m207.66,108.89v-3.52h.8c.8,0,1.5-.13,2.13-.4.62-.27,1.19-.74,1.7-1.43.51-.69,1.01-1.7,1.5-3.02l14.42-39.08h9.11l13.89,39.14c.44,1.24.92,2.21,1.43,2.89.51.69,1.06,1.17,1.66,1.46.6.29,1.25.43,1.96.43h1.2v3.52h-21.93v-3.52h2.59c.67,0,1.31-.2,1.93-.6.62-.4.93-1.06.93-1.99,0-.35-.03-.71-.1-1.06-.07-.35-.14-.69-.23-1-.09-.31-.18-.58-.27-.8l-2.33-6.65h-16.15l-1.93,5.71c-.09.36-.2.75-.33,1.2-.13.44-.24.9-.33,1.36s-.13.88-.13,1.23c0,.84.31,1.49.93,1.93.62.44,1.31.66,2.06.66h2.79v3.52h-17.28Zm15.62-19.67h13.42l-3.52-10.9c-.31-1.02-.64-2.12-1-3.29-.36-1.17-.69-2.36-1-3.56-.31-1.2-.6-2.3-.86-3.32-.27.93-.58,1.97-.93,3.12-.35,1.15-.72,2.3-1.1,3.46-.38,1.15-.74,2.24-1.1,3.26l-3.92,11.23Z"/>
    <path class="cls-5" d="m261.44,108.89v-3.32l24.92-40.07h-13.09c-2.08,0-3.47.55-4.15,1.66-.69,1.11-1.12,2.57-1.3,4.39l-.33,3.59h-4.79l.33-13.69h35.49v3.39l-24.99,40.01h14.35c1.82,0,3.21-.32,4.19-.96.97-.64,1.66-1.47,2.06-2.49.4-1.02.64-2.08.73-3.19l.33-2.99h4.79l-.33,13.69h-38.21Z"/>
    <path class="cls-6" d="m326.3,109.56c-5.05,0-9.24-1.02-12.56-3.06-3.32-2.04-5.82-4.89-7.48-8.57-1.66-3.68-2.49-7.97-2.49-12.89s.83-9.19,2.49-12.83c1.66-3.63,4.16-6.46,7.51-8.47,3.34-2.02,7.54-3.02,12.59-3.02,4.79,0,8.85,1.01,12.2,3.02,3.34,2.02,5.88,4.85,7.61,8.51,1.73,3.66,2.59,7.94,2.59,12.86s-.88,9.2-2.62,12.86c-1.75,3.66-4.29,6.5-7.61,8.54-3.32,2.04-7.4,3.06-12.23,3.06Zm0-4.32c2.79,0,5.01-.8,6.65-2.39,1.64-1.59,2.83-3.9,3.56-6.91.73-3.01,1.1-6.62,1.1-10.83s-.37-7.88-1.1-10.87c-.73-2.99-1.92-5.27-3.56-6.84-1.64-1.57-3.83-2.36-6.58-2.36-4.17,0-7.11,1.76-8.84,5.28-1.73,3.52-2.59,8.45-2.59,14.79,0,4.21.38,7.82,1.13,10.83.75,3.01,1.96,5.32,3.62,6.91,1.66,1.59,3.86,2.39,6.61,2.39Z"/>
    <path class="cls-19" d="m351.49,108.89v-3.52h2.79c.62,0,1.18-.1,1.69-.3.51-.2.92-.61,1.23-1.23.31-.62.46-1.55.46-2.79v-32.03c0-1.2-.16-2.08-.46-2.66-.31-.58-.72-.95-1.23-1.13-.51-.18-1.07-.27-1.69-.27h-2.79v-3.52h14.75l23.46,33.16v-25.59c0-1.2-.16-2.08-.46-2.66-.31-.58-.72-.95-1.23-1.13-.51-.18-1.08-.27-1.7-.27h-2.79v-3.52h17.35v3.52h-2.79c-.62,0-1.19.1-1.7.3-.51.2-.92.6-1.23,1.2-.31.6-.46,1.54-.46,2.82v39.61h-6.11l-25.92-36.62v28.78c0,1.24.16,2.17.47,2.79.31.62.72,1.03,1.23,1.23.51.2,1.07.3,1.69.3h2.79v3.52h-17.35Z"/>
    <path class="cls-22" d="m399.47,108.89v-3.52h.8c.8,0,1.51-.13,2.13-.4.62-.27,1.18-.74,1.69-1.43.51-.69,1.01-1.7,1.5-3.02l14.42-39.08h9.1l13.89,39.14c.44,1.24.92,2.21,1.43,2.89.51.69,1.06,1.17,1.66,1.46.6.29,1.25.43,1.96.43h1.2v3.52h-21.93v-3.52h2.59c.66,0,1.31-.2,1.93-.6.62-.4.93-1.06.93-1.99,0-.35-.03-.71-.1-1.06-.07-.35-.14-.69-.23-1-.09-.31-.18-.58-.27-.8l-2.33-6.65h-16.15l-1.93,5.71c-.09.36-.2.75-.33,1.2-.13.44-.24.9-.33,1.36-.09.46-.13.88-.13,1.23,0,.84.31,1.49.93,1.93.62.44,1.31.66,2.06.66h2.79v3.52h-17.28Zm15.62-19.67h13.42l-3.52-10.9c-.31-1.02-.64-2.12-1-3.29-.36-1.17-.69-2.36-1-3.56-.31-1.2-.6-2.3-.86-3.32-.27.93-.58,1.97-.93,3.12-.36,1.15-.72,2.3-1.1,3.46-.38,1.15-.74,2.24-1.1,3.26l-3.92,11.23Z"/>
    <path class="cls-21" d="m468,109.56c-2.97,0-5.45-.28-7.44-.83-1.99-.55-3.59-1.28-4.79-2.19-1.2-.91-2.05-1.92-2.56-3.02-.51-1.11-.76-2.19-.76-3.26,0-1.51.35-2.71,1.06-3.62.71-.91,1.64-1.56,2.79-1.96,1.15-.4,2.37-.6,3.66-.6,0,2.53.39,4.64,1.16,6.35.77,1.71,1.85,2.99,3.22,3.85,1.37.86,2.95,1.3,4.72,1.3,2.61,0,4.64-.69,6.08-2.06,1.44-1.37,2.16-3.08,2.16-5.12,0-1.51-.41-2.8-1.23-3.89-.82-1.08-2.05-2.08-3.69-2.99-1.64-.91-3.7-1.87-6.18-2.89-3.1-1.29-5.56-2.62-7.38-4.02-1.82-1.4-3.11-2.95-3.89-4.65-.78-1.71-1.16-3.64-1.16-5.82,0-2.7.71-5.05,2.13-7.04,1.42-1.99,3.36-3.54,5.82-4.65s5.24-1.66,8.34-1.66c3.28,0,5.96.34,8.04,1.03,2.08.69,3.62,1.61,4.62,2.76s1.5,2.46,1.5,3.92c0,1.55-.68,2.86-2.03,3.92s-3.4,1.59-6.15,1.59c0-1.24-.23-2.57-.7-3.99s-1.21-2.64-2.23-3.66c-1.02-1.02-2.39-1.53-4.12-1.53s-3.31.52-4.62,1.56c-1.31,1.04-1.96,2.56-1.96,4.55,0,1.24.29,2.39.86,3.46.58,1.06,1.66,2.12,3.26,3.16s3.88,2.16,6.84,3.36c3.06,1.24,5.52,2.53,7.38,3.85,1.86,1.33,3.21,2.82,4.05,4.49.84,1.66,1.26,3.58,1.26,5.75,0,2.84-.74,5.35-2.23,7.54-1.49,2.19-3.58,3.91-6.28,5.15-2.7,1.24-5.89,1.86-9.57,1.86Z"/>
  </g>
  <g>
    <g>
      <g>
        <path class="cls-3" d="m1.21,12.43h20.91c.67,0,1.21-.62,1.21-1.4h0c0-.77-.54-1.4-1.21-1.4H1.21c-.67,0-1.21.62-1.21,1.4h0c0,.77.54,1.4,1.21,1.4Z"/>
        <path class="cls-7" d="m1.21,94.97h20.91c.67,0,1.21-.62,1.21-1.4h0c0-.77-.54-1.4-1.21-1.4H1.21c-.67,0-1.21.62-1.21,1.4h0c0,.77.54,1.4,1.21,1.4Z"/>
        <path class="cls-16" d="m4.78,86.66V18.31c0-2.18-.79-3.95-1.76-3.95h0c-.97,0-1.76,1.77-1.76,3.95v68.35c0,2.18.79,3.95,1.76,3.95h0c.97,0,1.76-1.77,1.76-3.95Z"/>
        <path class="cls-13" d="m13.16,86.66V18.31c0-2.18-.87-3.95-1.94-3.95h0c-1.07,0-1.94,1.77-1.94,3.95v68.35c0,2.18.87,3.95,1.94,3.95h0c1.07,0,1.94-1.77,1.94-3.95Z"/>
        <path class="cls-10" d="m21.64,86.66V18.31c0-2.18-.83-3.95-1.85-3.95h0c-1.02,0-1.85,1.77-1.85,3.95v68.35c0,2.18.83,3.95,1.85,3.95h0c1.02,0,1.85-1.77,1.85-3.95Z"/>
      </g>
      <path class="cls-1" d="m23,7c-3.11-.55-6.81-.97-11-1-4.61-.03-8.67.41-12,1V0h23v7Z"/>
    </g>
    <path class="cls-17" d="m62,112H0v-13c8.79,1.28,19.24,2.19,31,2,11.79-.19,22.24-1.43,31-3v14Z"/>
  </g>
</svg>