<?xml version="1.0" standalone="no"?>
<!DOCTYPE svg PUBLIC "-//W3C//DTD SVG 20010904//EN"
 "http://www.w3.org/TR/2001/REC-SVG-20010904/DTD/svg10.dtd">
<svg version="1.0" xmlns="http://www.w3.org/2000/svg"
 width="1278.000000pt" height="1278.000000pt" viewBox="0 0 1278.000000 1278.000000"
 preserveAspectRatio="xMidYMid meet">
<metadata>
Created by potrace 1.14, written by Peter Selinger 2001-2017
</metadata>
<g transform="translate(0.000000,1278.000000) scale(0.100000,-0.100000)"
fill="#000000" stroke="none">
<path d="M2862 12373 c2 -258 7 -397 13 -397 6 1 30 5 55 8 25 3 54 8 65 10
11 2 43 7 70 10 28 4 61 9 75 11 14 2 48 7 75 10 28 4 66 8 85 11 19 2 58 6
85 8 28 3 77 8 110 11 66 8 93 10 300 21 251 13 703 8 945 -11 43 -3 175 -16
215 -20 17 -2 57 -6 90 -9 81 -8 130 -14 130 -16 0 -1 14 -3 31 -5 16 -2 48
-6 70 -10 21 -3 57 -8 79 -11 22 -3 58 -9 79 -14 22 -5 42 -7 45 -5 5 2 6 751
2 788 -1 4 -591 7 -1311 7 l-1310 0 2 -397z"/>
<path d="M3005 11670 c-27 -3 -60 -11 -72 -18 -55 -31 -87 -126 -64 -195 6
-18 27 -49 47 -68 l35 -34 1227 -1 c1346 -1 1266 -4 1310 60 51 74 35 180 -34
229 l-40 28 -1180 2 c-648 1 -1201 0 -1229 -3z"/>
<path d="M3183 11128 c-80 -21 -152 -158 -170 -322 -4 -34 -7 -1854 -6 -4046
0 -3639 1 -3991 16 -4058 23 -104 70 -201 114 -234 38 -30 90 -37 111 -16 7 7
12 8 12 4 0 -13 70 68 70 82 0 6 5 12 10 12 6 0 9 3 8 8 -1 4 8 38 20 76 12
37 25 94 29 125 8 70 8 7989 -1 8051 -3 25 -7 52 -9 60 -16 71 -22 91 -43 135
-43 94 -102 139 -161 123z"/>
<path d="M4106 11125 c-21 -7 -51 -26 -67 -41 -52 -50 -108 -194 -114 -294 -1
-20 -4 -41 -6 -46 -7 -15 -2 -7904 6 -7969 13 -120 73 -257 136 -309 58 -49
149 -25 202 51 22 32 64 118 57 118 -1 0 3 12 9 28 16 40 21 72 27 167 9 141
9 178 2 174 -4 -3 -4 5 0 16 5 12 5 44 2 71 -4 27 -4 49 -1 49 7 0 6 68 0 75
-3 2 -2 31 1 64 3 32 2 71 -1 85 -4 14 -4 26 -1 26 4 0 6 71 4 157 -2 87 -3
165 -3 173 1 108 1 133 -4 141 -4 5 -3 9 2 9 4 0 7 71 5 157 -2 87 -3 165 -3
173 1 108 1 133 -4 141 -4 5 -3 9 2 9 4 0 8 58 8 129 0 71 -3 127 -7 125 -4
-3 -4 5 0 16 5 12 5 44 2 71 -4 27 -4 49 -1 49 3 0 6 42 6 94 0 52 -3 92 -7
90 -4 -3 -4 5 0 16 5 12 5 44 2 71 -4 27 -4 49 -1 49 3 0 5 55 3 122 -1 68 -3
130 -3 138 0 8 1 41 1 73 0 32 -2 62 -5 68 -4 5 -3 9 2 9 4 0 7 107 5 237 -1
131 -3 245 -3 253 0 8 1 41 1 73 0 32 -2 62 -5 68 -4 5 -3 9 2 9 4 0 8 94 8
209 0 115 -3 207 -7 205 -4 -3 -4 5 0 16 5 12 5 44 2 71 -4 27 -4 49 -1 49 3
0 6 42 6 94 0 52 -3 92 -7 90 -4 -3 -4 5 0 16 5 12 5 44 2 71 -4 27 -4 49 -1
49 7 0 6 68 0 75 -3 2 -2 31 1 64 3 32 2 71 -1 85 -4 14 -4 26 -1 26 4 0 6 71
4 157 -2 87 -3 165 -3 173 1 108 1 133 -4 141 -4 5 -3 9 2 9 4 0 7 71 5 157
-2 87 -3 165 -3 173 1 108 1 133 -4 141 -4 5 -3 9 2 9 4 0 8 58 8 129 0 71 -3
127 -7 125 -4 -3 -4 5 0 16 5 12 5 44 2 71 -4 27 -4 49 -1 49 3 0 6 42 6 94 0
52 -3 92 -7 90 -4 -3 -4 5 0 16 5 12 5 44 2 71 -4 27 -4 49 -1 49 3 0 5 55 3
122 -1 68 -3 130 -3 138 0 8 1 41 1 73 0 32 -2 62 -5 68 -4 5 -3 9 2 9 4 0 7
107 5 237 -1 131 -3 245 -3 253 0 8 1 41 1 73 0 32 -2 62 -5 68 -4 5 -3 9 2 9
4 0 8 94 8 209 0 115 -3 207 -7 205 -4 -3 -4 5 0 16 5 12 5 44 2 71 -4 27 -4
49 -1 49 15 0 0 295 -20 376 -26 112 -113 249 -155 247 -5 -1 -16 3 -24 7 -9
5 -32 2 -54 -5z"/>
<path d="M5070 11123 c-8 -3 -30 -22 -48 -41 -29 -31 -39 -50 -73 -127 -14
-33 -29 -99 -36 -161 -8 -74 -8 -7940 0 -8014 34 -296 201 -436 319 -266 19
28 43 76 53 106 10 30 18 55 18 55 -1 0 5 30 12 66 9 52 12 912 10 4065 -1
2200 -5 4013 -8 4029 -4 17 -19 67 -33 113 -21 66 -36 92 -73 132 -42 44 -52
50 -87 49 -21 0 -46 -3 -54 -6z"/>
<path d="M3029 2265 c-3 -2 -22 -7 -43 -9 -51 -7 -91 -38 -110 -86 -23 -57
-20 -106 8 -154 33 -56 67 -73 146 -74 36 0 67 -1 70 -2 3 -1 10 -1 15 0 12 2
206 2 220 0 6 -2 15 -1 20 0 12 2 206 2 220 0 6 -2 15 -1 20 0 11 2 937 2 945
-1 3 -1 10 0 15 1 12 2 206 2 220 0 6 -2 15 -1 20 0 12 2 206 2 220 0 6 -2 15
-1 20 0 12 2 206 2 220 0 6 -2 14 -2 19 -1 5 1 41 3 80 5 79 3 108 16 137 63
60 96 10 236 -88 248 -38 5 -112 6 -143 2 -14 -2 -32 0 -40 4 -8 4 -34 4 -58
-1 -23 -4 -42 -4 -42 1 0 4 -12 4 -27 1 -16 -4 -47 -6 -70 -4 -24 1 -51 3 -60
3 -10 1 -34 1 -53 0 -19 -1 -43 -1 -52 -1 -10 0 -38 0 -63 0 -25 0 -52 0 -60
0 -25 1 -144 1 -160 0 -8 0 -22 0 -30 0 -8 -1 -40 -1 -70 -1 -30 0 -62 0 -70
1 -8 0 -21 0 -27 0 -78 0 -116 0 -133 1 -11 1 -36 1 -55 0 -19 -1 -42 -1 -50
-1 -8 0 -37 0 -65 0 -27 0 -59 1 -70 1 -11 1 -36 1 -55 0 -19 -1 -43 -1 -52
-1 -10 0 -38 0 -63 0 -25 0 -52 0 -60 0 -25 1 -144 1 -160 0 -8 0 -22 0 -30 0
-8 -1 -40 -1 -70 -1 -30 0 -62 0 -70 1 -8 0 -21 0 -27 0 -78 0 -116 0 -133 1
-11 1 -36 1 -55 0 -19 -1 -42 -1 -50 -1 -8 0 -37 -1 -65 -1 -27 -1 -57 1 -66
5 -8 4 -17 4 -20 1z"/>
<path d="M9860 1585 c-36 -7 -81 -15 -100 -18 -19 -3 -48 -8 -65 -11 -16 -3
-86 -15 -155 -26 -165 -27 -175 -28 -175 -30 0 -1 -22 -3 -50 -5 -27 -2 -61
-6 -75 -9 -27 -6 -72 -13 -140 -21 -25 -3 -52 -7 -60 -9 -8 -3 -42 -8 -75 -11
-75 -9 -115 -14 -162 -20 -21 -3 -56 -7 -78 -10 -22 -3 -56 -7 -75 -9 -37 -4
-114 -13 -195 -22 -27 -3 -61 -6 -75 -8 -14 -2 -56 -6 -95 -10 -38 -3 -86 -8
-105 -11 -31 -4 -81 -9 -215 -20 -22 -2 -78 -6 -125 -10 -47 -3 -103 -8 -125
-10 -22 -2 -85 -7 -140 -11 -55 -3 -122 -8 -150 -9 -49 -4 -148 -9 -376 -20
-64 -4 -177 -8 -251 -9 -75 -2 -141 -7 -147 -10 -6 -4 -11 -2 -11 4 0 7 -5 8
-12 3 -17 -11 -1126 -12 -1155 -2 -15 5 -23 5 -23 -2 0 -6 -5 -7 -11 -4 -5 4
-69 8 -142 11 -224 6 -682 29 -682 33 0 1 -40 3 -90 6 -49 2 -118 7 -152 10
-63 5 -129 10 -253 20 -36 3 -81 8 -100 10 -19 2 -69 7 -110 11 -41 3 -86 8
-100 9 -14 2 -52 6 -85 9 -85 8 -149 15 -235 26 -41 6 -93 12 -115 14 -22 2
-56 7 -75 10 -19 3 -57 7 -85 10 -52 5 -105 12 -165 21 -19 3 -46 7 -60 9 -14
2 -49 7 -77 11 l-53 7 0 -741 0 -741 3535 0 3535 0 0 800 c0 440 -1 799 -2
799 -2 -1 -32 -7 -68 -14z"/>
</g>
</svg>
